<svg width="47" height="47" viewBox="0 0 47 47" fill="none" xmlns="http://www.w3.org/2000/svg">
<path d="M14.9667 8.6666C14.9667 10.364 14.2925 11.9919 13.0922 13.1921C11.892 14.3923 10.2641 15.0666 8.56675 15.0666C6.86936 15.0666 5.2415 14.3923 4.04126 13.1921C2.84103 11.9919 2.16675 10.364 2.16675 8.6666C2.16675 6.96922 2.84103 5.34135 4.04126 4.14112C5.2415 2.94089 6.86936 2.2666 8.56675 2.2666C10.2641 2.2666 11.892 2.94089 13.0922 4.14112C14.2925 5.34135 14.9667 6.96922 14.9667 8.6666ZM44.8334 8.6666C44.8334 10.364 44.1591 11.9919 42.9589 13.1921C41.7587 14.3923 40.1308 15.0666 38.4334 15.0666C36.736 15.0666 35.1082 14.3923 33.9079 13.1921C32.7077 11.9919 32.0334 10.364 32.0334 8.6666C32.0334 6.96922 32.7077 5.34135 33.9079 4.14112C35.1082 2.94089 36.736 2.2666 38.4334 2.2666C40.1308 2.2666 41.7587 2.94089 42.9589 4.14112C44.1591 5.34135 44.8334 6.96922 44.8334 8.6666ZM14.9667 38.5333C14.9667 40.2307 14.2925 41.8585 13.0922 43.0588C11.892 44.259 10.2641 44.9333 8.56675 44.9333C6.86936 44.9333 5.2415 44.259 4.04126 43.0588C2.84103 41.8585 2.16675 40.2307 2.16675 38.5333C2.16675 36.8359 2.84103 35.208 4.04126 34.0078C5.2415 32.8076 6.86936 32.1333 8.56675 32.1333C10.2641 32.1333 11.892 32.8076 13.0922 34.0078C14.2925 35.208 14.9667 36.8359 14.9667 38.5333ZM44.8334 38.5333C44.8334 40.2307 44.1591 41.8585 42.9589 43.0588C41.7587 44.259 40.1308 44.9333 38.4334 44.9333C36.736 44.9333 35.1082 44.259 33.9079 43.0588C32.7077 41.8585 32.0334 40.2307 32.0334 38.5333C32.0334 36.8359 32.7077 35.208 33.9079 34.0078C35.1082 32.8076 36.736 32.1333 38.4334 32.1333C40.1308 32.1333 41.7587 32.8076 42.9589 34.0078C44.1591 35.208 44.8334 36.8359 44.8334 38.5333Z" stroke="white" stroke-width="3.2"/>
<path d="M14.9668 38.5332H32.0334M14.9668 8.6665H32.0334M38.4334 32.1332V15.0665M8.56677 32.1332V15.0665" stroke="white" stroke-width="3.2" stroke-linecap="round"/>
</svg>
