<svg width="53" height="52" viewBox="0 0 53 52" fill="none" xmlns="http://www.w3.org/2000/svg">
<g clip-path="url(#clip0_509_467)">
<path fill-rule="evenodd" clip-rule="evenodd" d="M32.9 13.2001C32.9004 14.5241 32.4903 15.8157 31.7262 16.8969C30.962 17.9781 29.8815 18.7958 28.6333 19.2375V23.8668H35.0333C36.7307 23.8668 38.3586 24.5411 39.5588 25.7413C40.759 26.9416 41.4333 28.5694 41.4333 30.2668V32.7628C42.8573 33.2661 44.0575 34.2566 44.8218 35.5592C45.5861 36.8618 45.8653 38.3927 45.61 39.8813C45.3547 41.3698 44.5813 42.7202 43.4267 43.6937C42.272 44.6672 40.8103 45.2012 39.3 45.2012C37.7897 45.2012 36.328 44.6672 35.1733 43.6937C34.0187 42.7202 33.2453 41.3698 32.99 39.8813C32.7347 38.3927 33.0139 36.8618 33.7782 35.5592C34.5425 34.2566 35.7427 33.2661 37.1667 32.7628V30.2668C37.1667 29.701 36.9419 29.1584 36.5418 28.7583C36.1418 28.3582 35.5991 28.1335 35.0333 28.1335H17.9667C17.4009 28.1335 16.8582 28.3582 16.4582 28.7583C16.0581 29.1584 15.8333 29.701 15.8333 30.2668V32.7628C17.2573 33.2661 18.4575 34.2566 19.2218 35.5592C19.9861 36.8618 20.2653 38.3927 20.01 39.8813C19.7547 41.3698 18.9813 42.7202 17.8267 43.6937C16.672 44.6672 15.2103 45.2012 13.7 45.2012C12.1897 45.2012 10.728 44.6672 9.57334 43.6937C8.41865 42.7202 7.64531 41.3698 7.39 39.8813C7.13469 38.3927 7.41386 36.8618 8.17816 35.5592C8.94246 34.2566 10.1427 33.2661 11.5667 32.7628V30.2668C11.5667 28.5694 12.2409 26.9416 13.4412 25.7413C14.6414 24.5411 16.2693 23.8668 17.9667 23.8668H24.3667V19.2375C23.2598 18.8467 22.2816 18.1592 21.5392 17.25C20.7967 16.3408 20.3185 15.245 20.1568 14.0824C19.9951 12.9197 20.1561 11.735 20.6223 10.6577C21.0886 9.58045 21.842 8.65209 22.8002 7.97412C23.7585 7.29616 24.8847 6.8947 26.0557 6.81363C27.2267 6.73256 28.3975 6.975 29.44 7.51444C30.4826 8.05389 31.3567 8.86958 31.9669 9.87233C32.5772 10.8751 32.8999 12.0263 32.9 13.2001ZM26.5 11.0668C25.9342 11.0668 25.3916 11.2916 24.9915 11.6916C24.5914 12.0917 24.3667 12.6343 24.3667 13.2001C24.3667 13.7659 24.5914 14.3086 24.9915 14.7086C25.3916 15.1087 25.9342 15.3335 26.5 15.3335C27.0658 15.3335 27.6084 15.1087 28.0085 14.7086C28.4086 14.3086 28.6333 13.7659 28.6333 13.2001C28.6333 12.6343 28.4086 12.0917 28.0085 11.6916C27.6084 11.2916 27.0658 11.0668 26.5 11.0668ZM13.7 36.6668C13.1342 36.6668 12.5916 36.8916 12.1915 37.2916C11.7914 37.6917 11.5667 38.2343 11.5667 38.8001C11.5667 39.3659 11.7914 39.9086 12.1915 40.3086C12.5916 40.7087 13.1342 40.9335 13.7 40.9335C14.2658 40.9335 14.8084 40.7087 15.2085 40.3086C15.6086 39.9086 15.8333 39.3659 15.8333 38.8001C15.8333 38.2343 15.6086 37.6917 15.2085 37.2916C14.8084 36.8916 14.2658 36.6668 13.7 36.6668ZM39.3 36.6668C38.7342 36.6668 38.1916 36.8916 37.7915 37.2916C37.3914 37.6917 37.1667 38.2343 37.1667 38.8001C37.1667 39.3659 37.3914 39.9086 37.7915 40.3086C38.1916 40.7087 38.7342 40.9335 39.3 40.9335C39.8658 40.9335 40.4084 40.7087 40.8085 40.3086C41.2086 39.9086 41.4333 39.3659 41.4333 38.8001C41.4333 38.2343 41.2086 37.6917 40.8085 37.2916C40.4084 36.8916 39.8658 36.6668 39.3 36.6668Z" fill="white"/>
</g>
<defs>
<clipPath id="clip0_509_467">
<rect width="51.2" height="51.2" fill="white" transform="translate(0.900024 0.399902)"/>
</clipPath>
</defs>
</svg>
