<svg width="53" height="52" viewBox="0 0 53 52" fill="none" xmlns="http://www.w3.org/2000/svg">
<path d="M24.3667 19.5998H28.6334V15.3332H24.3667M26.5 43.0665C17.092 43.0665 9.43335 35.4078 9.43335 25.9998C9.43335 16.5918 17.092 8.93317 26.5 8.93317C35.908 8.93317 43.5667 16.5918 43.5667 25.9998C43.5667 35.4078 35.908 43.0665 26.5 43.0665ZM26.5 4.6665C23.6985 4.6665 20.9244 5.21831 18.3361 6.29041C15.7478 7.36251 13.3961 8.93391 11.4151 10.9149C7.4143 14.9157 5.16669 20.3419 5.16669 25.9998C5.16669 31.6578 7.4143 37.084 11.4151 41.0848C13.3961 43.0658 15.7478 44.6372 18.3361 45.7093C20.9244 46.7814 23.6985 47.3332 26.5 47.3332C32.158 47.3332 37.5842 45.0856 41.585 41.0848C45.5857 37.084 47.8334 31.6578 47.8334 25.9998C47.8334 23.1983 47.2816 20.4242 46.2095 17.8359C45.1374 15.2476 43.5659 12.8959 41.585 10.9149C39.604 8.93391 37.2522 7.36251 34.6639 6.29041C32.0757 5.21831 29.3016 4.6665 26.5 4.6665ZM24.3667 36.6665H28.6334V23.8665H24.3667V36.6665Z" fill="white"/>
</svg>
