<svg width="53" height="52" viewBox="0 0 53 52" fill="none" xmlns="http://www.w3.org/2000/svg">
<g clip-path="url(#clip0_509_453)">
<path fill-rule="evenodd" clip-rule="evenodd" d="M42.6185 0.182555C43.0571 0.364218 43.4319 0.671874 43.6956 1.06661C43.9594 1.46134 44.1001 1.92543 44.1001 2.40016V8.00016H49.7001C50.1744 8.00057 50.638 8.14156 51.0323 8.4053C51.4266 8.66904 51.7339 9.04372 51.9154 9.482C52.0969 9.92028 52.1444 10.4025 52.0519 10.8678C51.9595 11.3331 51.7313 11.7605 51.3961 12.0962L41.7961 21.6962C41.3464 22.1464 40.7364 22.3996 40.1001 22.4002H38.8937C39.5291 24.8617 39.4172 27.4567 38.5721 29.8544C37.727 32.2521 36.1871 34.3438 34.1487 35.863C32.1102 37.3821 29.6656 38.2598 27.1264 38.3843C24.5872 38.5087 22.0684 37.8741 19.8912 36.5616C17.7141 35.249 15.977 33.3178 14.9016 31.0142C13.8262 28.7106 13.4611 26.139 13.8529 23.6271C14.2446 21.1152 15.3755 18.7769 17.1013 16.9102C18.8272 15.0435 21.0698 13.733 23.5433 13.1458C24.1628 12.9985 24.8155 13.1034 25.3577 13.4374C25.8999 13.7713 26.2872 14.307 26.4345 14.9266C26.5817 15.5461 26.4768 16.1988 26.1428 16.741C25.8089 17.2832 25.2732 17.6705 24.6537 17.8178C23.0545 18.1964 21.6107 19.0584 20.5187 20.2865C19.4266 21.5146 18.7393 23.0492 18.5501 24.6816C18.361 26.3141 18.6791 27.9652 19.4614 29.4105C20.2437 30.8558 21.452 32.0251 22.9222 32.7594C24.3925 33.4937 26.0531 33.7575 27.6785 33.5148C29.3039 33.272 30.8151 32.5346 32.0066 31.4028C33.1981 30.271 34.0122 28.7997 34.3381 27.1889C34.664 25.5782 34.4859 23.9061 33.8281 22.4002H33.0921L28.1961 27.2962C27.9763 27.532 27.7114 27.7211 27.417 27.8523C27.1226 27.9834 26.8048 28.054 26.4825 28.0597C26.1603 28.0653 25.8402 28.0061 25.5413 27.8853C25.2425 27.7646 24.971 27.585 24.7431 27.3571C24.5152 27.1292 24.3356 26.8577 24.2149 26.5589C24.0942 26.26 24.0349 25.9399 24.0406 25.6177C24.0462 25.2954 24.1168 24.9776 24.248 24.6832C24.3791 24.3888 24.5683 24.1239 24.8041 23.9042L29.7001 19.0082V12.0002C29.7006 11.3639 29.9538 10.7538 30.4041 10.3042L40.0041 0.704155C40.3395 0.368502 40.7668 0.139806 41.2322 0.0469658C41.6975 -0.045874 42.1799 0.0013101 42.6185 0.182555ZM34.5001 12.9954V17.6002H39.1081L43.9081 12.8002H39.3001V8.19216L34.5001 12.9954ZM16.3241 7.45616C20.0721 5.35379 24.3793 4.46395 28.6537 4.90896C28.9672 4.94152 29.284 4.91202 29.5861 4.82215C29.8882 4.73227 30.1696 4.58377 30.4143 4.38512C30.659 4.18648 30.8622 3.94158 31.0122 3.66442C31.1623 3.38725 31.2563 3.08325 31.2889 2.76976C31.3214 2.45626 31.2919 2.13943 31.202 1.83734C31.1122 1.53524 30.9637 1.25381 30.765 1.00911C30.5664 0.764412 30.3215 0.561232 30.0443 0.411176C29.7672 0.261119 29.4632 0.167123 29.1497 0.134555C23.8884 -0.412872 18.5868 0.682899 13.9737 3.27121C9.36062 5.85952 5.66256 9.81328 3.38798 14.5889C1.11339 19.3645 0.373987 24.7274 1.27142 29.9403C2.16884 35.1533 4.65904 39.9602 8.39963 43.7003C12.1402 47.4404 16.9475 49.9299 22.1606 50.8266C27.3736 51.7233 32.7365 50.9831 37.5118 48.7079C42.287 46.4326 46.2403 42.734 48.8279 38.1205C51.4156 33.5071 52.5106 28.2053 51.9625 22.9442C51.9299 22.6307 51.8359 22.3267 51.6858 22.0495C51.5358 21.7723 51.3326 21.5274 51.0879 21.3288C50.8432 21.1301 50.5618 20.9816 50.2597 20.8918C49.9576 20.8019 49.6408 20.7724 49.3273 20.805C49.0138 20.8375 48.7098 20.9315 48.4326 21.0816C48.1554 21.2316 47.9105 21.4348 47.7119 21.6795C47.5132 21.9242 47.3647 22.2056 47.2749 22.5077C47.185 22.8098 47.1555 23.1267 47.1881 23.4402C47.5778 27.1737 46.95 30.9431 45.3711 34.3488C43.7921 37.7544 41.321 40.6692 38.2197 42.7842C35.1184 44.8992 31.5026 46.1355 27.7556 46.362C24.0086 46.5885 20.2701 45.7968 16.9366 44.0708C13.6031 42.3448 10.7989 39.7488 8.82122 36.5582C6.84355 33.3676 5.7662 29.7012 5.7034 25.9479C5.6406 22.1946 6.5947 18.4942 8.46452 15.2392C10.3343 11.9842 13.0502 9.29592 16.3241 7.45936V7.45616Z" fill="white"/>
</g>
<defs>
<clipPath id="clip0_509_453">
<rect width="51.2" height="51.2" fill="white" transform="translate(0.900024)"/>
</clipPath>
</defs>
</svg>
